<svg id="Layer_1" data-name="Layer 1" xmlns="http://www.w3.org/2000/svg" xmlns:xlink="http://www.w3.org/1999/xlink" viewBox="0 0 2912.68 678.49"><defs><style>.cls-1{fill:none;}.cls-2{clip-path:url(#clip-path);}.cls-3,.cls-4{stroke:#000e1f;stroke-miterlimit:10;}.cls-3{stroke-width:4.98px;}.cls-4{stroke-width:4.25px;}</style><clipPath id="clip-path"><rect class="cls-1" x="2034.49" y="79.42" width="493.28" height="574.47"/></clipPath></defs><g class="cls-2"><path d="M814.77,864.22v3.28c10.12,5.85,20.16,11.84,30.39,17.49a74.6,74.6,0,0,0,14.13,6.21c7.88,2.41,15.23,1,20.77-5.6,4.84-5.72,4.86-14.55,0-22.16-2.14-3.37-5.17-6.16-8.16-9.63,6.38-3.78,13.31-5.73,20.28-7.67,12-3.33,24.26-3.52,36.48-2.59s23,6.14,32.8,13.48c6.32,4.73,12.57,9.58,19.18,13.9,8.83,5.78,18.5,9.22,29.3,8.36a36.62,36.62,0,0,0,4.07-.36c15.2-3,20-15.15,10.26-27.13-4.23-5.19-9.73-9.34-15.17-14.45,2.48-.65,4.88-1.64,7.37-1.88,31.28-3,60.81.93,86.65,20.92a137,137,0,0,0,23.32,14.91c14.18,6.93,28.78,7.31,43.24-.67.25-1.28.6-2.58.74-3.9a38,38,0,0,0-.17-4.26c4.44,3.72,8.48,3.59,12.51,1.12,4.92-3,5.6-7.29,1.42-11.35-2.51-2.44-5.58-4.32-8.43-6.4-1.75-1.29-4-2.19-5.2-3.84a5.51,5.51,0,0,1-.38-4.93,3.3,3.3,0,0,1,5.53-.8c1.89,1.92,3.27,4.34,5.08,6.36,3.07,3.42,6,7.13,9.55,9.93,4.38,3.42,8.09,2.83,10.76-.62,2.78-3.6,2.2-6.23-2.75-10.09a180.14,180.14,0,0,1-41-44.1c-1.54-2.38-2.82-4.93-4.22-7.4l1.47-1.46a29.68,29.68,0,0,1,4.85,3c6.49,5.81,12.71,11.92,19.28,17.63a179,179,0,0,0,36.6,24.46c4.06,2.06,6,4.6,6.08,9.45.09,8,1.33,10,9.21,10.78,13.66,1.42,25,7.51,36.72,14,12.29,6.76,26.16,9.26,40,2.5,3.18-1.56,6.44-2.92,9.63-4.45,10.76-5.17,21.79-6.31,33.34-2.9,6,1.77,12.14,3,18.25,4.37,12.57,2.78,24.85.72,37.12-2.25,7.12-1.73,14.34-3.16,21.59-4.18,11.76-1.64,22.7,1,32.85,7.17,4,2.39,8,4.63,12.08,6.84a23.28,23.28,0,0,0,15.08,2.29c4.55-.72,8.34-2.88,9.66-7.65s-.05-8.74-4.06-11.48c-4.24-2.91-8.69-5.54-13.15-8.13-2.5-1.45-5.19-2.58-7.76-5.53,7.57-1.34,15.1-3,22.71-4,32.22-4.1,63-.31,91.2,17.15,8.11,5,16.42,9.68,24.47,14.77a30.61,30.61,0,0,0,17.71,4.76c23.15-.36,46.33.58,69.46-.22,28.55-1,57-3.91,85.59-4.7a579,579,0,0,0,81.93-8.25c17.92-3.06,35.68-7.34,53.25-12.06,26-7,52.1-11.84,79-8.76a196.6,196.6,0,0,1,33.53,6.81,98,98,0,0,0,57.83-.28c11.19-3.36,22.64-5.93,34.07-8.32,22.28-4.63,44.38-2.49,66.41,2.28,13.81,3,27.63,6.32,41.62,8,12.59,1.56,25.44,3.74,38.1,1a46.83,46.83,0,0,0,15.61-6.6c9.4-6.27,11.09-15.91,5.35-25.71-1.5-2.55-3.37-4.87-6.06-8.72,4.2,1.14,7.12,1.9,10,2.73,22.93,6.52,44.2,16.78,64.84,28.56a83.56,83.56,0,0,0,17.1,7.31c13.8,4.21,27.76,7.59,42.42,7.6,11.37,0,22-3.17,32.82-5.92,18-4.57,36-8.88,54.73-7.7,9.18.58,18.3,2.2,27.45,3.33v-3.26c-17.8-5.61-35.94-5.89-54.1-2.63a325.56,325.56,0,0,0-35.79,8.1c-18.13,5.4-35.93,4.68-54,0-12.44-3.19-24.35-7.34-35.49-14a252.64,252.64,0,0,0-70.92-28.58c-3.11-.76-6.65-2.82-10.16.84,1.25,1.3,2.26,2.47,3.38,3.52,2,1.86,4.2,3.5,6,5.48,11,11.8,8.53,23.48-6.6,29.34a48.68,48.68,0,0,1-16.68,3c-17.76.21-35.23-2.26-52.57-6.2-12.19-2.78-24.51-5.07-36.84-7.19-22.51-3.87-44.47-.18-66.22,5.52-6.06,1.58-12.17,3-18.15,4.79a86.06,86.06,0,0,1-51.42.09c-15.39-4.64-31.17-7.85-47.32-8.27-7.6-.19-15.22.48-22.82.8a25.83,25.83,0,0,1-9.22-.72c2.24-1.24,4.43-2.62,6.74-3.72,30.29-14.56,55.3-35.48,75.78-62.07,7.57-9.82,9.19-20.7,7.26-32.41-1.14-6.89-8.59-12.68-16.25-12.12a248.76,248.76,0,0,0-30,3.64c-45.52,9-91.37,10.4-137.46,6.52-27.65-2.33-55.26-5.22-82.9-7.81a104,104,0,0,0-33.19,2c-47.5,10.74-95.15,20.82-142.75,31.11-4.7,1-9.42,1.89-14.88,3a16.3,16.3,0,0,1-1.1-4.31c-.16-6.53.26-13.1-.2-19.6-.4-5.44,1.45-8.48,6.53-10.66,10.75-4.6,21.25-9.81,31.85-14.76,25.16-11.73,50.52-23.06,75.41-35.35,15.8-7.8,32.95-11,49.39-16.56,2.17-.73,4.88-.38,7.24.07a113.9,113.9,0,0,1,15.88,3.65,37.85,37.85,0,0,0,25.59-.46q33.06-11.76,66-23.74c23.85-8.72,24.75-9.56,34.66-33.1a128.9,128.9,0,0,0,4.86-15.53c1.65-6-.22-10.91-5.51-14-8.18-4.85-16.51-9.48-24.91-14a15.23,15.23,0,0,0-12.7-.79c-4.09,1.48-8.3,2.73-12.21,4.6-21.34,10.26-42.57,20.73-63.9,31-12.19,5.88-22.28,14.26-27.48,26.8-5.61,13.52-16.35,19.52-29.75,23.57-4.15-8-10.92-7.18-18.07-4.61a21.57,21.57,0,0,0-5.17,2.4c-9.38,6.64-19.64,8-31,6.88-13.52-1.4-27.16-1.64-40.76-2.18a23.78,23.78,0,0,1-12.33-3.53c-10.12-6.43-20.27-12.79-30.37-19.23-1.83-1.16-4-2.41-1.42-5.53,2.69,1.38,5.41,3.06,8.35,4.23,5.3,2.11,9.06,1.08,11.74-3.86,8.33-15.32,16.05-30.94,19.73-48.19a31.64,31.64,0,0,0,.48-3.22c2.34-19.77-4.28-30.81-22.87-38.18-9.19-3.65-18.57-6.23-28.61-5-12.28,1.55-21.47,7.6-26.65,19-4.71,10.34-7,21.16-4.76,32.58.36,1.86.41,3.77.66,6.11-8.29,3-6.46,10.07-6.2,16.31-.55.52-.91,1.18-1.29,1.19-14.47.2-24,7.82-29.89,20.4-2.78,5.89-5.11,12-7.43,18.07-2,5.17-10,10.91-14.71,8.94-7.34-3-13.42-.25-19.5,2.58a32.58,32.58,0,0,1-12.52,2.68c-10.87.58-21.75,1.29-32.54,2.62-7.8,1-15,.55-22.11-3.21-6.48-3.43-13.33-6.19-20-9.19-19.52-8.71-19.51-8.71-34.67-23.37-1.83-1.77-3.69-3.4-1.57-6.72,3.34,1,6.8,2.28,10.34,3.2,4.27,1.12,7.79-.31,9.28-4.5,6.73-19,13.45-38.06,12.1-58.72-1-15.42-8.33-24.65-23.15-29a95.58,95.58,0,0,0-16-3.17c-24.81-2.84-41.76,11.46-43.3,36.36a40.12,40.12,0,0,0,.11,9c.86,5.37.91,10.14-1.16,15.68-2.52,6.68.43,13.82,3.73,19.67-8.77,17.22-17.91,33.86-25.72,51.1-4.35,9.58-6.56,20.14-9.61,30.31-2.63,8.78,2.06,15.8,5.76,23.07,1.55,3.05,2.74,6.28,4.06,9.44a8.58,8.58,0,0,0,.87,2.28c7.75,9.09,5.11,20,5.26,30.37,0,3.47-.31,6.94-.5,10.79-7.09,0-12.69-3-18.51-4.9a36.93,36.93,0,0,1-8.94-4c-15.88-10.41-33.67-7-50.9-6.89-3.49,0-7.51,3.11-10.32,5.79-6.1,5.83-13.1,8.34-21.35,8.6-16.34.5-32.66,1.3-49,2-6.08.26-11.65-1.22-17.4-3.4a69.28,69.28,0,0,0-20.55-4.36c-8.65-.47-17.42.36-26.07,1.22a21.21,21.21,0,0,0-9.74,3.61c-5.82,4.11-12.13,6.44-19.07,6.3-18-.37-36-.58-53.86-1.85-17.07-1.21-34-3.68-51.09-5.52a17.49,17.49,0,0,0-6.38.17c-4.23,1.17-6,4.75-4.59,8.88,4.6,13.08,9,26.26,14.19,39.08,3.16,7.77,7.74,15,11.69,22.41.72,1.35,1.5,2.67,3.1,5.5-25.64-2-49.45-.5-72.17,13.37,2.53,2.22,4.67,3.68,6.26,5.59,2.9,3.49,6.41,6.88,8,11,4,10.63-3.21,19.58-14.53,17.79-5.49-.88-10.89-3.35-15.89-6-7.95-4.15-15.46-9.14-23.31-13.52C821.47,866.5,818,865.53,814.77,864.22ZM1141,791.64c-9.16-3.32-9.16-3.32-11.12-10.68C1137.41,781.23,1138.68,786.29,1141,791.64Zm127.41-80.28c-4-6.58-7.37-13.28-4.19-21.47,1.75-4.53,2.11-9.6,3.92-14.11,5.26-13.06,10.63-26.11,16.55-38.9,3.39-7.29,9.42-11,18-9.2,3.43.7,7,.74,10.48,1.28,10.23,1.59,16.66,8.46,16.78,19,.29,7.15-3,14.37-8.34,20.31-6.35,7-13.35,13.5-20.28,20-7.11,6.65-15.37,12.16-20.17,21a10.35,10.35,0,0,1-3.38,3.46C1274.45,714.91,1270.2,714.38,1268.38,711.36ZM1280,769V739c22.54,5.77,45,5.57,67.94,7.7-.81,1.69-1.05,3.29-2,3.9-14,9.54-27.06,21.45-45.87,20.2a9.8,9.8,0,0,0-3.21.44C1290.74,773.13,1285.27,771,1280,769Zm6.24-48.85c-1.93-.55-3.62-1.92-5.6-3,3.3-4.72,5.87-9.24,9.26-13,3.59-4,8-7.29,12.77-11.59,13.47,6.59,26.84,13.08,40.13,19.71a6.6,6.6,0,0,1,3.11,3.44c3.06,9.47-1.83,16.18-11.66,16.16-2.71,0-5.54.15-8.11-.54C1312.78,727.76,1299.49,724,1286.22,720.18Zm11-140.75a50.58,50.58,0,0,1,1.24-25c3.24-11.29,11.12-17.64,22.27-20.38,9.3-2.3,18.38-.59,27.35,1.7,15.48,3.94,22.14,12.7,22.59,28.6.48,17.24-5.07,33.2-10.08,49.26-2.43,7.79-4.58,8.52-11.94,5.24-3.09-1.37-6.15-2.81-9.9-4.53-.63,3.37-1.07,5.63-1.89,10-1.89-2.78-3.52-4.1-3.42-5.27.21-2.66,1.36-5.22,2-7.86,2.55-11.15-.31-16.58-11-19.84a204.07,204.07,0,0,0-20.56-5C1299.61,585.56,1298,583.39,1297.19,579.43ZM1331.64,776a40.72,40.72,0,0,1,16.7-13.15v12.43Zm16.81-43.65c.83-4.76,1.66-9.49,2.73-15.63,9,4.33,17.18,7.49,24.43,12.11,3.48,2.22,6.22,7,7.24,11.07.5,2-3.64,5.26-5.9,7.74-1.26,1.39-3,2.29-4.5,3.51-3.15,2.58-5.77,2.09-8.38-1C1359,744.22,1353.72,738.37,1348.45,732.36Zm5.9,41.49c-3.46-12.14-2.62-15.06,5.91-20.56,8.27,5.53,8.89,5.53,16.74-.4a50.94,50.94,0,0,0,6.9-5.73c1.58-1.71,3.65-4.15,3.46-6.07-.44-4.57,2.34-6.23,5.32-8.21,18.59-12.36,37.13-24.79,55.74-37.11a39.07,39.07,0,0,1,7.95-4.09c5.09-1.87,10.16-3.6,12.66-9.86,6.72,4.28,13.17,7.2,21,.09-1.64,9.47-2.82,17.16-4.37,24.77a15.27,15.27,0,0,0,1.8,11.7,13.75,13.75,0,0,1,1.6,6.84c0,5.42-.65,10.85-.73,16.27-.14,9.09,0,18.18,0,28.76-5.52-4.21-10.21-7.36-14.37-11.09s-8.3-5.07-14.08-3.75c-24.9,5.7-49.88,11.14-74.93,16.14C1374.84,773.56,1364.58,775,1354.35,773.85Zm12.5-69c-2.08-19.2-4.08-37.66-6.12-56.59,1.88.68,3.64,1.2,5.3,1.94,11.87,5.31,23.62,10.95,35.64,15.89,5.45,2.23,7.52,6,7.47,11.21-.07,6.74-.55,13.48-.9,20.95C1394,702.51,1380.28,703,1366.85,704.88Zm6.27,17.78c-7.3-3.57-7.29-3.59-5.84-13.15l48.48-7.34c.14.64.29,1.27.43,1.91l-34.76,22.46C1378.49,725.18,1375.78,724,1373.12,722.66Zm40.07-25.31V668.63l46.43-4c3.67,9,3.71,9-2.4,13.08-7.25,4.78-14.7,9.28-21.87,14.19C1428.77,696.4,1421.53,697.58,1413.19,697.35Zm52.46-31c.23-.55.47-2.34,1.49-3.32,5.4-5.26,18.84-4.75,23.82,1a6.91,6.91,0,0,1,1.26,5.15c-1,5.31-3.8,9.6-8.8,12.08a7.69,7.69,0,0,1-3.81,1.09C1472.61,681.72,1465.92,674.4,1465.65,666.34Zm28,103.42a157,157,0,0,1,0-46.22,29.1,29.1,0,0,1,3.85.83c21.27,8.61,43.74,10.06,66.28,11a23.86,23.86,0,0,0,8.06-.73c3.51-1.11,6.28-.38,9.25,1.87v33.95c-19.65,9.06-39.89,11.83-60.78,9.41-7.46-.86-14.8-3.17-22-5.34C1496.45,773.93,1494,771.59,1493.7,769.76Zm15.09-109c-4.53-2.78-6.53-7.24-4.22-12.69,2.74-6.47,5.32-13,8.34-19.38,5.38-11.32,14.9-16,27.27-16,6.1-.84,11.58,1.43,16.71,4.69,21.1,13.4,42.18,26.79,63.13,40.41a8.06,8.06,0,0,1,3.29,5.84c-.31,11.38-12.42,21.62-23.75,20.3-7.28-.84-14.59-1.68-21.76-3.15-17.26-3.56-34.54-7.1-51.59-11.48C1520.06,667.74,1514.29,664.17,1508.79,660.8Zm41.07-70.3c-1.85-11.43-1.89-22.35,2.33-33.06,5.07-12.92,15-19.78,28.78-19.89,8.62-.08,16.56,2.66,24.3,6,14.81,6.47,20.31,16.8,17.79,32.58-2.8,17.49-11,32.88-18.9,48.33-2.37,4.63-3.87,4.93-8.46,2.38-3.73-2.06-7.17-4.62-11.45-7.41l-3.67,8-6.19-4.39c1.59-4.16,3.09-7.65,4.28-11.24,3.79-11.43,3.8-22.19-15.41-21.89C1559,590,1554.67,590.29,1549.86,590.5Zm42,128.48c1-11.68,1.92-21.52,5.82-30.47l48.43,5.7Zm23-33.74c7.7-6.66,12.08-15.16,14-25.73,16.47,1,32.49,1.55,48.42,3,13.27,1.22,13.22,1.7,15.62,15.87C1678.8,687.65,1627.25,692.22,1614.81,685.24Zm83.18-8.1c-1.94-5.75-3.51-10.44-5-15,15.31-10.48,20-12,26.47-9Z"/><path d="M883.44-474.82c-.33,2-1.2,4.14-.91,6.08Q891.2-411.86,900.12-355q8.63,55.25,17.37,110.46c.12.81.21,1.62.25,2.44a22.51,22.51,0,0,0,10.2,18.32c7.51,5.26,13.35,13,23.71,14.54,0,3.21,0,5.86,0,8.5-.09,4.87-.57,9.55,2.79,14,1.38,1.85.58,5.75,0,8.55-1.82,8.76-4.32,17.32-4.25,26.49.05,7.72,2.71,13.46,9.38,16.72,6.44,3.16,9.51,8.23,11.72,14.69,4.4,12.88,9.2,25.62,14.11,38.31A41.45,41.45,0,0,1,988.08-66c-.83,53.93-1.48,107.86-2.4,161.79-.09,4.6.71,7.78,5,9.94,8.61,4.37,13.28,12.51,19.16,20.09-1.74,1.11-3,2.27-4.42,2.74-7.49,2.42-10.29,7.8-10.9,15.27-.58,7-1.88,14-3,21a12.64,12.64,0,0,0,2.28,10c8.4,11.73,16.47,23.69,24.91,35.39a23.5,23.5,0,0,1,5,13.49,35.88,35.88,0,0,0,2.13,10.29c8.52,24.41,17.24,48.75,25.79,73.15,1.39,4,2.85,7.26,7.72,8.23,2.81.55,5.3,2.69,7.91,4.15q30.26,17,60.5,34.05c8.29,4.66,8.45,4.72,13.61-2.91,2.05-3,3.36-6.57,5.26-10.4,3.57,1.11,6.39-1.26,8.37-4.81,4.91-8.75,11.84-12.83,22.29-13.05,12.47-.25,24.86-2.7,37.32-3.76,4.05-.35,6.4-1.87,8.23-5.38,3-5.78,6.43-11.36,9.86-17.34,2.56-.24,5.2-.48,8.52-.77,4.5-8.9,9.14-18.06,13.7-27.09,5-1,7.46,1.5,9.27,5.27,3.19,6.62,6.68,13.1,9.72,19.78,1.94,4.31,4.61,6.65,9.51,7.68,12.77,2.69,25.34,6.3,38.07,9.17a15.23,15.23,0,0,1,9.79,6.5c17.72,24.85,35.69,49.5,53.31,74.39,2.79,3.93,5.52,5.88,10.51,5.86,28.06-.07,56.12.12,84.18.42a12,12,0,0,0,8.73-3.38c15.1-13.35,30.41-26.46,45.38-40,2.16-1.94,3.55-5.38,4.11-8.35,3.17-16.55,6-33.17,9-50.27,5.28,1.16,9.09,3.76,9.67,8.73,1,8.66,6,12.69,13.94,14.59,11.5,2.79,19.91,9.82,27.87,18.58q81.29,89.54,163.29,178.45c.71.77,1.58,1.4,3,2.69,3.49-4.12,7-7.89,10-12,2.68-3.52,5.58-5.23,10.31-4.84,6,.5,6.5-.35,6.66-6.34.13-4.9.24-9.82-.08-14.71a13.38,13.38,0,0,1,5.63-12.38c2.19,1.56,4.43,3.06,6.57,4.67q104.07,78.46,208,157c3.2,2.43,6.27,2.8,9.83,2.79,19.34-.06,38.68,0,58-.13q51.84-.27,103.67-.67c5.12,0,10.81,1.18,12.62-7.56l-.57-1.72a16.76,16.76,0,0,0-4,2.15,12.67,12.67,0,0,1-6.4,2.49c-18.53.31-37.06.35-55.58.43-.75,0-1.49-.39-4.4-1.19,4.32-1.59,6.86-2.78,9.53-3.47,10.22-2.61,10.36-2.74,9.19-13.22a8.25,8.25,0,0,1,.51-2.06c6.67.25,11.41-3.6,15.5-8.56,5.54-6.73,11.28-13.31,16.56-20.22,4.36-5.7,3.93-8.15-.27-13.8-10.07-13.54-20.13-27.09-29.88-40.87-1.91-2.69-2.56-6.36-3.44-9.67-1.19-4.46-1.26-9.38-3.2-13.42-3.46-7.18-3.77-14.3-2.66-21.94.85-5.9.86-11.93,1.08-17.91.79-21.77,1.47-43.55,2.29-65.31.22-6,1.19-11.89,4.56-17.15a60.19,60.19,0,0,0,3.23-6.6c3.75-7.78,5.75-15.71,3.43-24.45-1.74-6.55-2.95-13.27-4.08-20-.46-2.74-.07-5.63-.07-8,10.38-2.17,20-4,29.46-6.26a42.65,42.65,0,0,0,10.52-4.27c4.69-2.59,6.44-6.55,5.91-12.27-2.32-25.46-3.91-51-6.35-76.45-.9-9.38,1.44-18.72-1.2-28.18-2.91-10.41-5.23-13.11-16-13.34-6-.12-12-.18-18-.39-8.38-.29-16.71-.29-24.95,3.87l7.37-10,21.56-1c.3-4.16.76-7.82.79-11.5.17-19.72.13-19.72-11.1-36a43.23,43.23,0,0,1-3.22-4.72c-10-20-28.82-23.18-48.14-24.72-4.27-.34-9,1.77-13.1,3.6a66.07,66.07,0,0,0-11.77,7.27,19.43,19.43,0,0,0-4.72,5.39c-7.08,11.17-8,23.68-6.48,36.27,1.36,11,4.14,21.9,6,32.89,1.41,8.37,5.15,11.53,15.39,9,1.29-.32,2.58-.69,3.88-1,.21,0,.49.19,1.9.8-.55,3.79-.05,8.53-1.94,12-7.24,13.32-8,27.51-7.22,42.08,1.46,26.36,2.81,52.74,4.52,79.09.58,9.14,3.42,17.94,3.44,27.3,0,17.62-3.43,34.56-7.76,51.42-5.07,19.75-10.63,39.38-15.55,59.18-2.71,10.91,1.56,19.5,11.14,25.3a54.69,54.69,0,0,1,9.72,7.12c6.48,6.22,12.46,13,19,19.17a23.69,23.69,0,0,1,7.22,13.29c4.57,23.78,9.12,47.56,14.12,71.26,1,4.84-.07,8.07-3.81,10.49-6.59,4.28-13.11,8.81-20.15,12.2-4.58,2.19-8.82,4-10.05,10-19.14,0-37.94-.48-56.69.2-9.58.35-16.92-2.44-24.51-8.21q-100.86-76.63-202.18-152.65c-2.38-1.78-4.8-3.5-7.42-5.42-5.82,4.61-10,9.4-9.42,17.16.41,5.67.08,11.39.08,17.42-2.39,0-4.34-.4-6,.09-2.46.7-5.22,1.53-7,3.21-3.5,3.35-6.41,7.32-10.17,11.74-3.75-4-7.24-7.66-10.66-11.39q-79-86.15-157.85-172.4c-4.74-5.18-9.81-9.22-16.67-11-2.88-.74-5.56-2.31-8.44-3-6-1.46-9.12-4.93-10.09-11.11-1.33-8.42-8.66-10.94-15.89-15.18-.93,3.24-1.86,5.67-2.31,8.18-2.85,15.8-5.68,31.61-8.31,47.44a14.3,14.3,0,0,1-5,8.95q-21.29,18.49-42.38,37.21a12.12,12.12,0,0,1-8.76,3.4c-27-.42-53.94-.78-80.91-.88-4.74,0-7.4-2.1-10-5.67-17.41-24.39-35-48.61-52.4-73-2.87-4-6-6.39-11-7.45-12-2.56-23.73-6.06-35.71-8.54-5.66-1.17-9.21-3.68-11.39-9s-5.45-10.11-7.39-15.45c-2.63-7.23-7.94-9.79-15.81-10.67l-14.34,28.45c-6.13-1.57-9.84,1.24-11.89,6.72a4.22,4.22,0,0,1-.38.73c-3.11,5.1-5.1,12-9.64,14.8-4.81,3-12,2.34-18.19,3-11.08,1.23-22.21,2.15-33.29,3.46a10.16,10.16,0,0,0-5.44,2.75,41.39,41.39,0,0,0-5.49,7.1c-2.83,4.25-6,7.76-11.87,6.43-3.08,5.33-1.66,12.53-8.48,16.1-1.92-1-4.33-2.07-6.63-3.37-21.13-11.86-42.14-23.94-63.41-35.55-5.43-3-8.92-6.7-10.34-12.67-.82-3.39-2.18-6.65-3.55-10.73,4.82-1.33,9.14-2.66,13.53-3.7Q1217.3,249.66,1371,213.51c7.42-1.73,13.23-4.43,15.7-12.16a40.29,40.29,0,0,1,3-5.81c6.88-13.15,6.84-13.31,20.9-15.58,3.32-.54,6.93.25,10.35.81a92.35,92.35,0,0,1,9.24,2.42c1.46-4.44,3-8.17,3.89-12.05,1.65-7.12,4.59-13.27,10.84-17.52a55.74,55.74,0,0,0,5.38-4.9c4.37,3.17,8.88,6.09,13,9.54a7.32,7.32,0,0,0,8.22,1.38c1.27-.5,2.6-.84,3.84-1.39,9.47-4.33,19.16-5.79,29.09-1.72,6.34,2.6,11.08-.94,15.81-4s9-4.19,14.49-2.56c4.68,1.39,7.15,4.41,9.61,8.12,9.47,14.25,6.68,12.52,22.74,8.71q107.19-25.35,214.39-50.73a101.65,101.65,0,0,1,11.25-1.92,78.63,78.63,0,0,0,21.23-5.16c7.45-3.11,15.7-4.32,23.63-6.19q136.56-32.28,273.19-64.38c7.3-1.71,12.4-4.67,14.94-11.92,1.25-3.56,3.74-6.67,5.12-10.2,2.19-5.57,6.08-8.82,12.37-10.26L2150.6,12c7.09-2.86,12.73-6.49,14.13-15,1.71-10.35,6.64-19.42,12.62-28,5.74-8.27,10.84-17,16.42-25.38,1.33-2,3.49-3.43,5.26-5.12.55.28,1.09.58,1.64.87,0,2.55.34,5.16-.06,7.64-.86,5.15,1,8.41,5.85,10.06l12-4.9c1.19-2.4,3-6,4.79-9.7,9.09-18.88,18-37.85,27.35-56.63a32.06,32.06,0,0,1,7.89-10q39.23-32.7,78.82-65a25.8,25.8,0,0,0,7.32-9.52c14.47-31.41,29.16-62.71,43.82-94,.79-1.7,1.84-3.29,2.93-5.22q34.78-3.63,69.52-7.27c.85-4.11,1.52-7.39,2.3-11.23,2.41.87,3.9,1.35,5.34,1.94s2.87,1.33,4.41,2.05c4.57-4,6-8.52,4.53-14.05-.49-1.85-.76-3.74-1.29-5.57-1.11-3.8,0-6.72,2.74-9.53,3.65-3.67,6.65-8,10.35-11.56a56.15,56.15,0,0,0,15.07-25.56c3-10.44,7.16-20.55,10.58-30.89,3.19-9.57,10.24-15.63,18.2-21v-4.9c-1.22.34-2.82.31-3.62,1.08-4.9,4.72-9.8,9.49-14.31,14.58-1.72,1.93-2.69,4.66-3.58,7.18-4.52,12.83-9,25.68-13.3,38.6a35.3,35.3,0,0,1-7.76,13.21c-5.54,6-10.78,12.29-16.31,18.3-2.81,3.05-4.25,6-2.39,10.2a25.38,25.38,0,0,1,1.7,8c.18,2-.41,4-.67,6.17-11.57-3.65-13.74-2.41-15.92,9.18-7.14.79-14.6,1.67-22.07,2.44-13.27,1.34-26.54,2.77-39.84,3.82-5.3.42-8,2.89-10.23,7.65-14.32,31.17-29,62.19-43.38,93.34a29.35,29.35,0,0,1-8.35,10.8c-25.53,20.85-50.93,41.86-76.46,62.73a35.65,35.65,0,0,0-10.47,13.18c-8,17.58-16.79,34.83-24.94,52.36-3.28,7-6.25,13.9-16.52,13.49.39-4.64.8-9.61,1.2-14.46-7.69-3-11-2.2-14.76,3.64-8.15,12.57-16.55,25-24.06,38-3.21,5.51-4.87,12.06-6.47,18.33-1.34,5.26-3.91,8.84-9.09,10.57a13.77,13.77,0,0,1-1.39-.63c-2.64-1.57-4.12-6-8-4.35-4.63,1.93-10.08,2.84-12.71,8.11-3,6.09-6.29,12.07-9.31,18.18a9.36,9.36,0,0,1-6.71,5.34q-55.22,13-110.42,26.06a15.35,15.35,0,0,1-3,0,55,55,0,0,1-2.39-5.63c-1.82-6.06-5.64-8.5-12.1-8.62-15.9-.3-31.25-4-46.31-9a72.34,72.34,0,0,1-7-3.18c1.51-8.68,3.22-16.91,4.37-25.22q6.32-45.69,12.21-91.45a20.41,20.41,0,0,0-1.5-9.43,652.16,652.16,0,0,0-31-69.34c-10.61-20.26-20.66-40.82-31.22-61.1-2.67-5.13-2.51-9.17.31-14.33,7-12.86,13.26-26.16,20-39.78,6.49,1.2,13.75,1.84,20,6.17,4.21,2.93,9,2.33,13.42,1.08,16.76-4.68,33.45-9.62,50.19-14.43,2.72-.78,5.51-1.36,8.8-2.15,0,10.26-.11,19.48,0,28.7.1,5.76.5,5.93,7.81,5.12.31-9,.65-18.22.94-27.42.14-4.52.55-8.29,3.89-12.51,3.12-3.93,3.09-10.64,3.55-16.2.13-1.64-2.71-3.64-4.4-5.25-2.07-2-4.81-3.41-6.45-5.66-2.22-3.05-4.8-4.24-8.36-3.79a6.16,6.16,0,0,0-1.62.24c-9.32,4.11-17.92.46-26.7-2.29-14.27-4.48-28.64-8.65-42.93-13.12-2.51-.78-5.33-1.87-7-3.71-5.4-5.75-10.44-11.85-15.4-18-.85-1.05-.68-2.94-1.24-5.72,3.34.31,5.88.61,8.42.81,8.82.68,12.27-2.22,12.27-10.85,0-19.6-3.65-38.37-12.61-56-6.31-12.43-15.57-18.79-30-18.19-10.32.43-19.93,2.33-28.94,7.37-15.07,8.4-20.91,21.75-16.9,38.63,2.8,11.74,9.33,21.37,17.06,30.31,2.83,3.26,5.78,6.4,9.5,10.5-4.77,1.87-8.4,3.76-12.25,4.68a30.9,30.9,0,0,0-14.77,8.18q-137.62,134-275.31,268-77,75-154,150a22.15,22.15,0,0,1-10.59,5.6c-55,13.92-105.12,38.56-152.29,69.53-8.38,5.51-16,12.25-23.61,18.82a49.56,49.56,0,0,0-8.27,10c-2.56,3.81-2.83,8-.9,12.42,6.73,15.48,13.1,31.12,20,46.52,1.8,4,5.07,7.36,8,11.48l-186.11,44.08c-6.74-16.86-12.24-34-18.36-51.1,12.65-2.3,13.08-2.16,16.91-14.11,8.87-27.67,23.33-52.69,36.34-78.41,2.21-4.38,4.43-8.76,6.81-13,5.41-9.72,8.6-19.94,7.9-31.21a53.47,53.47,0,0,1,.54-7.38c2.15-.21,3.73-.47,5.31-.5,26.14-.57,52.28-1.21,78.44-1.6,21.74-.32,22.35-.56,33.19-19.63,4.29-7.55,8.45-15.19,13-22.56,4.76-7.64,5.55-15.89,4.16-24.38-1.53-9.39-3.68-18.68-5.48-28-.46-2.38-1.19-4.89-.83-7.2,1.12-7.29-.43-14.09-3-20.77-5.18-13.46-10.26-27-15.74-40.31A121.5,121.5,0,0,0,1165.88-128c-5.28-3.82-10.31-8-15.41-12.09-4.35-3.47-8.88-6-14.82-5.72-5,.24-6.35-1.12-6.75-5.94a72.83,72.83,0,0,1,0-9.8c.48-9.56-2.42-18.24-6.68-26.61-2.91-5.73-7.23-10.51-9.37-16.92-1.69-5.08-7.34-7.77-12.57-9.74-26.18-9.89-58,9.2-61.34,36.9-.41,3.44.24,7,.48,10.55.16,2.37.5,4.74.91,8.57-2.79-1-5-1.12-6.27-2.3-9.11-8.54-17.49-18-27.16-25.81-12.55-10.18-23.51-21.88-34.41-33.64-4.54-4.9-9.34-7.9-15.89-8.67-4.24-.5-8.41-1.64-13.27-2.62L940.78-219c-4.3-3.46-7.92-7-12.1-9.57-5.13-3.21-5.81-8.14-6.62-13.26q-8.5-54.45-17-108.89-9.18-58.87-18.33-117.76c-.34-2.14-1.08-4.22-1.63-6.32Zm68.44,261.65c-7.13-3.9-7.2-4.05-4.77-13,6.1.41,13.09-.09,17.7,4,8.66,7.75,16.21,16.75,24.24,25.24-3.18,2.9-5.66,2.86-8.36.43-1.59-1.44-3.46-3.06-5.45-3.49-8.68-1.87-16.73-4.6-21.94-12.5C953-212.8,952.36-212.91,951.88-213.17Zm11.68,76.07c-9-5.69-10.24-8.66-8.09-20.51,5.36,1.68,11.68.9,15.82,5.22,5.75,6,10.15,13.09,14.31,20.23l-7.19,4.8C973-130.89,968.34-134.06,963.56-137.1ZM958.44-189c-3.67-3.82-3.33-8.11-2.1-12.51,5.29,1.62,10.16,3.07,15,4.58a16.56,16.56,0,0,1,10.42,8.44c8.41,16.35,20.76,29.9,32.11,44.13,2.41,3,5.34,5.27,9.69,5.18,1.59,0,3.26,1.31,4.81,2.18,3,1.7,5.75,4.17,8.95,5.14a144.43,144.43,0,0,0,22.16,5.34c7.37,1,12.59,4.4,16.69,11-13.15,11-29.26,17.32-43.59,27-6.45-6.94-12.87-13.92-19.39-20.83-12.68-13.42-26.19-26.14-35.67-42.26-2.84-4.8-7.19-7.15-12.59-8.1a98.15,98.15,0,0,1-9.73-2.75c1.55-6.87,2.75-13,4.32-18.94C960.27-184.18,960.6-186.72,958.44-189Zm17.65,69.72,1.26-.6c1.3,2.27,2.54,4.56,3.9,6.78,10.18,16.75,20.67,33.32,30.47,50.29,6.15,10.63,16.28,12.28,25.85,8.07,19.92-8.76,39.76-17.71,59.64-26.57,2.16-1,4.34-1.88,5.67-2.46,8.28,10.7,16.38,20.54,23.75,30.89,7.55,10.61,14.44,21.7,21.51,32.65.93,1.43,1.18,3.3,2.16,6.19-14.6-4.82-28-9.12-41.33-13.66-19.36-6.6-38.94-12.06-59.52-13.32-8.77-.53-11.93.82-15.6,8.57-3.19,6.75-5.34,13.67-3.49,21.32a61.28,61.28,0,0,1,1.24,8.87c2.77,31.76,8.28,63.1,14.32,94.37.45,2.35.63,4.74,1,7.77-13.71,2.65-26.68,4.68-39.35-2.27-2.82-1.55-6.09-3.21-9.13-3.16-2.79,0-5.54,2.31-8.5,3.68,0-4.15-.05-8.22,0-12.3.67-47.65,1-95.33,2.28-143a83.38,83.38,0,0,0-6.71-36.38C981.93-101.86,979.21-110.64,976.09-119.24Zm7.47,1.78c-1.62-2.68-3-5.7,0-8.05s6.24-2,8.85.75c12,12.63,23.84,25.33,35.76,38,1.85,2,2.08,4,1.36,6.71-1.88,7.06-3.35,14.22-5.09,21.85-4.46.88-6.16-2.36-7.78-5C1005.54-81.22,994.57-99.35,983.56-117.46ZM993-177.79c-2.67-3.58-4.61-7.69-7-11.69,5-3.52,8.69-2.88,12.43.48q13,11.72,26.24,23.18c4.51,3.92,7.06,8,3.23,14-1.56,2.43-2.07,5.52-3.09,8.39-5.31.61-7.29-2.75-9.4-5.38C1007.82-158.38,1000.3-168,993-177.79Zm3.48,348.7c-.91-1.36-.89-3.65-.66-5.42,1-7.55,2-15.09,3.38-22.57.5-2.75,1.26-6.42,3.21-7.72a36.06,36.06,0,0,1,12.54-4.95c4.73-.95,9.72-.45,14.55-.95,7.37-.76,14.32.78,20.77,1.93.48,1.47.68,1.75.63,2-4.34,18.51-8.64,37-13.15,55.5-.5,2.05-2.17,3.8-4,6.9-1.47-5.63-2.46-9.47-3.63-13.95-8.78,1-13.13,6.19-16.07,14.59C1007.77,187.31,1002,179.21,996.47,170.91ZM996,100.45l1.55-1.94c3.44,1.26,7,2.3,10.33,3.82,7.32,3.36,14.76,5.06,22.92,3.88a101.24,101.24,0,0,1,34.74.58c.52,3.2,1.11,6.37,1.56,9.57,1.1,7.74-.15,9.79-7.71,11.41-2.26.48-4.82,0-7.16-.45-9.65-1.84-19.28-3.63-29.09-1.09-4.48,1.16-7.79-.29-10.59-4-4.12-5.41-8.61-10.52-12.82-15.87A63.17,63.17,0,0,1,996,100.45Zm25.11,106c-5-6.8-2.2-15.29,5.83-19.17.51,1.85,1,3.66,1.48,5.48,2.12,8.13,4.22,8.8,10.65,3.47.33-.28,1-.17,1.68-.28l9,5.34c-3.11,8.24-6,16.35-9.22,24.35-1.6,4-5.22,3.09-8.44,2.72-2.87-.32-4.45-1.91-4.35-4.85C1028,216.88,1024.94,211.69,1021.15,206.47Zm10.09-263.21-2-1.22c1.07-5.77,2.11-11.54,3.2-17.29,1.42-7.43,5.13-13.07,12.38-16a38,38,0,0,0,4.33-2.28c14.88-8.48,30.1-16.46,41.7-29.6A14.54,14.54,0,0,1,1096-127c11.83-4.74,23.63-9.61,35.71-13.61,3.48-1.15,8.6-.84,11.67,1,5.25,3.14,9.56,7.91,14.13,12.15a5.41,5.41,0,0,1,1,7.41c-3.67,5.67-7.16,11.53-11.37,16.78-3.34,4.16-8.25,6.08-13.77,5.92-10.64-.31-20.13,3.24-29.57,7.89-18.28,9-36.83,17.46-55.34,25.95C1042.88-60.95,1037-59,1031.24-56.74Zm6.13-79.38c-4.79-1.6-7.35-4.65-7.3-8.45,0-4.07,2.93-9.68,5.63-9.82,4.65-.23,10-1.68,13.3,3.14,4.6,6.62,8.89,13.47,14.11,21.45-6.74-1.5-12-2.59-17.21-3.84C1043-134.32,1040.17-135.18,1037.37-136.12Zm.57,154.66c-1.47-9.32-1.91-18.8-3-30,8.86,4.25,16.47,7.67,23.83,11.58a11.93,11.93,0,0,1,4.65,5.42c4.18,9.27,6.6,18.79,5.81,29.26-1.37,17.88-1.92,35.84-2.82,53.76a50.11,50.11,0,0,1-.5,6.5c-1.13,6-3.81,7.73-9.76,6.92-4.8-.66-5-4.42-5.61-7.84C1046.28,69,1041.91,43.8,1037.94,18.54ZM1043.73-12c-11.33-4.26-11.65-5.75-6.87-16.84,3.35-7.77,4-8.11,12.17-7.85,14.53.45,28.6,3.38,42.39,7.75q32.65,10.4,65.26,21a26.07,26.07,0,0,0,13.49,1.12,192,192,0,0,1,24.3-2.89c9.5-.59,18.93.57,29,3,1.61,8.53,2.85,17.13,4.91,25.54,3.32,13.56-1.17,24.62-10,34.46-2.73,3-5.92,5.63-8.66,8.65-7.75,8.54-17.22,9.57-27.67,6.68-10.74-3-21.38-6.42-32.24-8.86-11.3-2.54-20.51-8.39-29.18-15.63-13-10.83-26-21.64-39.12-32.2C1069.84,2.51,1058-6.59,1043.73-12Zm3.8,207c-3.5-1.5-6.09-3.67-5.17-8.06.57-2.66,1-5.36,1.62-8,3.79-15.26,7.63-30.5,11.28-45,1.53-.72,2-1,2.52-1.17,15.17-5.29,15.28-5.31,12.8-20.83-1.42-8.89-.82-17.63.56-26.59,11.81,5.62,11.81,5.62,22.72,5.08,1,11.88.06,22.64-5.36,33-11.72,22.43-22.94,45.12-34.36,67.7l-1.1,2.19C1051.8,195.79,1049.77,196,1047.53,195Zm3.37-351.54,26.2-17.58a146.43,146.43,0,0,1,21,40l-18.36,15.19C1068-129.89,1058.84-142.43,1050.9-156.54Zm19.7,231.82c-1.83-9.94.2-14.44,9.77-17.56,10.82-3.52,22-6,33-8.92,3.63-.94,6.68.11,9.82,2.41,4.8,3.51,9.75,7.52,15.28,9.22,16.59,5.1,33.47,9.37,50.32,13.58,5.72,1.42,11.36,0,16.42-3.19q1.89-1.21,3.8-2.4c-2.14,8.16-5.23,15-15.13,14.8-4.88-.08-9.77.71-14.66.83-24.22.54-48.44,1-72.67,1.49-6.8.15-13.59.61-20.39.68S1071.55,80.54,1070.6,75.28Zm2.51-42.67c0-7.57-1.19-15.13-1.95-23.89l42.59,34.85c-14.81,4.24-28.22,8.06-42.31,12.08C1072.06,47.7,1073.14,40.15,1073.11,32.61Zm12.44-212.75L1110-198.28c8.48,9.9,14.22,20.71,14.73,33.76.27,6.94,0,13.9,0,21.2l-17.72,6.26Zm22.86,93.59c1.44-.9,2.54-1.63,3.7-2.28,6.66-3.7,14.11-4.25,21.39-4.43,8.75-.21,15-4.23,20-10.76,2.81-3.65,5.09-7.7,7.54-11.62,1.42-2.29,2.7-4.66,4.27-7.4,2.56,2,4.78,3.49,6.82,5.25a115.38,115.38,0,0,1,31.4,43.2c5.63,13.56,10.82,27.3,16.08,41a60.05,60.05,0,0,1,2.95,10.17c.71,3.74,1,7.62-2.61,10.94a20.86,20.86,0,0,1-3.7,0,111,111,0,0,0-36.56,0,128.1,128.1,0,0,1-14.59,1.6c-4.46.17-8.44-.77-10.64-5.71-7.8-17.57-18.7-33.07-31.7-47.23A73.44,73.44,0,0,1,1108.41-86.55ZM1310.9,223.19l-.06-.41L1389.33,187c-3,5.8-5.62,10.55-7.9,15.45-1.64,3.55-4.16,5.25-8,6.09-11.14,2.43-22.2,5.27-33.32,7.9C1330.4,218.72,1320.64,220.93,1310.9,223.19Zm116.58-45.82-17.79-2.62c4.86-7.26,13.91-3.71,19.93-8.15l1.11,1.26C1429.63,171.09,1428.53,174.31,1427.48,177.37Zm3.17-96.7c-2.43-5.77-4.59-11.62-12.33-14.22L1827-331.66l1.74.94c-.4,2.22-.67,4.48-1.23,6.67q-5.37,21.33-10.87,42.64c-4.58,17.86-6.35,36.42-13.15,53.69-6.2,15.76-6.4,31.78-3.79,48.21,3.2,20.15,5.92,40.4,9,60.57,2.53,16.36,5.37,32.67,8.21,49.86.26-.47.12.13-.26.46-1.82,1.64-3.67,3.26-5.57,4.8-12.34,10-21.66,22-26.54,37.38-4.11,13-8.91,25.71-13.43,38.54-4.33,12.31-8.5,24.69-18.24,34.15-1.93,1.87-3.15,4.44-4.92,6.51-4.61,5.33-4.36,10.83-.86,16.54,1.71,2.78,3.4,5.57,5.13,8.35,7.31,11.76,14.62,23.51,22.31,35.85l-220.25,52.14c-2.72-4-5.47-7.45-7.49-11.25-2.66-5-6.66-7-12-8.51-5.81-1.58-10.71-1.22-15.32,2.38-6.13,4.77-12.68,5.59-19.91,3-6.11-2.23-12-1.7-18.26.55-14.09,5.1-14.18,4.86-25.85-4.69a16.81,16.81,0,0,1-1.8-2.14c2-5.7-.16-10.91-2.49-16.23Q1440.75,104.76,1430.65,80.67Zm319-17c-.33-1.72-.64-4.05.22-5.3,4.38-6.42,8.28-13.29,14.43-18l19.06,10.56c1.39,9.44,3.07,19.06,4.14,28.75,1,8.5,4.48,14.81,12.36,18.62,2.74,1.33,5.1,3.44,8.46,5.77-7.27,4.22-14.06,4.7-20.55,6-6.14,1.2-10.89-.7-14.31-6.56-7-12-14.47-23.59-21.72-35.38A14,14,0,0,1,1749.69,63.71Zm22.19-24.35c-3.63-2-4.41-4.81-2.89-8.9,7.55-20.37,14.9-40.81,22.24-61.26,5.6-15.62,17.66-25.49,29.86-35.18l23,11.63c-17.95,34.91-38.84,67-59.77,100.22C1779.88,43.56,1775.83,41.55,1771.88,39.36ZM1788.74,56a16.22,16.22,0,0,1,2.4-12.35q31.18-51.19,62.15-102.54a16.36,16.36,0,0,0,1.86-5.32c2.76-14.14,5.49-28.29,8.07-42.46,1-5.8,1.72-11.67,2.83-19.39,15.41,18.07,29.63,34.76,44,51.65-2.85,6-5.36,11.18-7.71,16.39-3.51,7.76-6,15.73-5,24.46,1.32,12.45,2.72,24.9,3.6,37.38,1,13.77,3.35,27.4,1.38,41.45-1.11,7.84.9,16.17,2.07,24.21.79,5.44,4.38,8.6,10.17,8.7,1.31,0,2.61.15,3.92.23,0,.36,0,.72,0,1.07l-103.23,24.41c-5.62-4.08-9.29-7.23-13.41-9.61-5.59-3.23-8.91-7.32-9.47-14.09A219.92,219.92,0,0,0,1788.74,56Zm15.51-234.23c-3.67-20.67-.36-40,7.38-59a27.3,27.3,0,0,1,2.58-4c9.74,6.54,20.35,9.06,31.15,10.57s21.5,2.26,32.77,3.4c.23.4.78,1.32,1.27,2.27,12,23.55,24.35,46.9,35.75,70.72,9.86,20.6,18.67,41.71,27.79,62.66,2.29,5.27,1.7,7.45-3.36,10A69.71,69.71,0,0,1,1925-76.61c-6,1.46-10.94,0-15.19-5.15q-19.23-23.33-39.2-46c-3.36-3.86-4.2-7.67-3.83-12.63,1.17-15.2,1.85-30.44,2.61-45.67.09-1.91-.54-3.85-.85-5.78l-1.49-.16c-.66,1.27-1.76,2.49-1.9,3.81q-.72,6.9-.88,13.84a538.54,538.54,0,0,1-12,102.87c-3,14-3.75,13.82-17,7.93C1824.89-68.18,1820-75,1818.48-86.26,1814.34-117,1809.67-147.71,1804.25-178.26Zm15.13-65.18c-5-3.14-5.64-5-4.37-10.83,3.07-14.06,6-28.15,9.29-42.17,1.83-7.84,4.19-15.55,6.32-23.33l1.9-.11c7.59,12.52,19.25,19.73,32.29,25.13,8,3.32,16.1,6.53,24.15,9.8,3.68,1.5,7.35,3,11.26,4.65-5.22,16.32-12.81,30.37-20.83,44.24-1.66,2.87-4.25,2.95-7,3.08-15.69.77-30.84-2.06-45.68-6.92A33.11,33.11,0,0,1,1819.38-243.44Zm16.7-165.62c-1.67-11.71,1.67-21.41,11.84-28.31,9.84-6.67,20.76-8.85,32.44-9,11.17-.11,18.08,5.47,23.14,14.89,8.58,16,11.59,33.19,12.81,50,.26,10.93-.66,11.8-10.49,10.92-1.08-.09-2.15-.41-3.23-.46-4.64-.26-6.5,1.18-7.2,5.69a21,21,0,0,0-.14,4.89c.26,3.25-1.37,4.93-4.2,6.09-8.82,3.63-19.87.79-25.69-6.69-4.8-6.19-9.6-12.38-14.47-18.52C1843.89-388.37,1837.7-397.62,1836.08-409.06Zm.77,87.25c-7.5-12-.41-19,7.57-23.22,2.78-1.47,6.2-1.74,10-2.74,2.44,1,5.48,1.55,7.76,3.18,17.23,12.33,34.2,25,51.5,37.23,5.8,4.1,7.33,9,5.54,15.43-.57,2.09-1,4.24-1.75,6.27-1.88,5.13-3.38,5.83-8.55,3.85-8.11-3.1-16.24-6.17-24.21-9.58-10.22-4.38-20.44-8.8-30.38-13.76C1846.92-308.84,1841.3-314.7,1836.85-321.81Zm35.79-20.85.75-1.46L1909-333.39v16.59Zm18.74-6.19,9.09-5.74c2.67,3.22,5,6,7.34,8.85-.37.52-.75,1-1.13,1.54Zm11.2,326.16c-2.51-18.25,2.31-34.21,11.15-47.77l29.73-6.14c-3.37,36.52-9.21,73-16.07,109.32-3.42.78-6.05,1.41-8.7,1.94a16.73,16.73,0,0,1-3.24.25c-6.38.07-7.41-.93-8-7.33C1905.91,10.81,1904.88-6,1902.58-22.69ZM1908.19,66c-2-8.74-3-17.56-.2-26.45,5.66-.42,11.12-.33,16.37-1.37a17.37,17.37,0,0,1,10.21,1.08c16.34,6.29,33.35,9.58,50.76,10.88,6.35.47,6.36.37,8,8.36a36.93,36.93,0,0,1-4.88,1.94c-15.6,3.58-31.16,7.3-46.83,10.52A208.61,208.61,0,0,1,1919,73.84C1911.82,74.51,1909.8,73,1908.19,66Zm12.28-373.12c-9.87-6.23-5.74-15.08-6.2-24.59,3.44,1.35,6.82,1.67,8.5,3.54,6,6.58,11.31,13.68,17.81,21.72C1932.75-305.59,1927-303,1920.47-307.17Zm.25,27.26c1.67-6.76,3.21-13,4.78-19.37,20.37-4.52,40.68-3.84,61.31-3.5,4.65,12.19,4.57,12.92-6.51,16.27-14,4.23-28.21,7.75-42.26,11.8C1930.85-272.64,1925.64-275.67,1920.72-279.91Zm21.44-32.18c-3.65-3.93-6.76-8.33-11-13.7,14.22,1.86,39.92,10.3,42.46,13.48-8.53.76-17.15,1.68-25.78,2.2A8,8,0,0,1,1942.16-312.09Zm38.95,3.52.51-2.75,6.87,1.63c-.12.62-.22,1.23-.34,1.84Q1984.63-308.19,1981.11-308.57Zm11.71-9.71.27-1.11,5.66.92c-.13.6-.26,1.19-.4,1.79Zm1.66,25.43c-.77-3.54-1.55-7.16-2.39-11,2.53-1.84,4.89-3.56,7.26-5.26a12,12,0,0,1,2.05-1.3c5-2.26,8.54.09,8.35,5.54C2009.41-295,2004.93-291.42,1994.48-292.85Zm67,435.23c-1.26-10.28.16-20.55,6.45-29.7a13.32,13.32,0,0,1,2.17,1.63c15,18.31,29.69,36.82,45,54.86,4.48,5.3,7.29,10.45,6.14,17.81-10.31,3.68-20.08,9.29-32.64,9.28V181c-7,.82-12,6.87-18.83,3.5a14.08,14.08,0,0,1-1.28-2.9C2066,168.55,2063.05,155.55,2061.44,142.38ZM2073.76,481c-4.87-.46-11.67-11.43-10.39-16.58,4.63-18.73,9.46-37.42,14.31-56.09a31.12,31.12,0,0,1,2.45-5.16c3,.38,5.67.81,8.37,1,8,.69,12.75-2.24,15.85-9.67a69.19,69.19,0,0,1,3.63-8.2c4.63-8,5.82-16.23,3-25a18.29,18.29,0,0,1-.72-3.18c-.49-3.67,8.42-21.77,11.68-23.18,6.44-2.79,13-5.29,20.63-8.37,1.59,8.08,2.83,15.81,4.67,23.39,1.57,6.49.38,12.46-2.41,18.17-4.3,8.8-8.71,17.55-13.41,26.14-12.13,22.2-24.18,44.46-36.87,66.35-3.75,6.49-9.32,12-14.41,17.58C2078.65,479.78,2075.81,481.17,2073.76,481Zm6-247.49c-.49-11.54,1.08-22.77,8.15-32.31l11.59-1.49c-2.5,5.89-6.3,11.59-7.2,17.73-1.16,7.93-.5,16.24.27,24.31.75,7.87,4.69,14.29,11.33,19,4.65,3.32,7.21,15.72,5.36,21.58-2.93,9.33-5.71,18.7-8.25,28.14-1.76,6.53-3,13.19-4.55,20-11.11.62-11.92,0-12.44-9.81-.28-5.17-.3-10.35-.56-15.51C2082.23,281.29,2080.78,257.4,2079.76,233.48ZM2082,399c2.49-16.54,1-33.17,15.37-44.92,2.31.8,4.84,1.66,7.67,2.62,4,10.42,4.33,20-1.6,29.29a36,36,0,0,0-3.55,8.17,7.4,7.4,0,0,1-7.29,5.42C2089.3,399.76,2085.92,399.28,2082,399Zm5.57-42.4V335.07l7.23.41C2094.5,349.71,2093.87,351.55,2087.61,356.64Zm-7.88,127.73,9.47-8.75c14.85,2.22,25.31,9.34,33.24,21.76,10.51,16.46,22.47,32,33.81,48,.79,1.1,1.57,2.22,2.43,3.27a5,5,0,0,1,.13,6.73c-1.57,2.09-3.4,4-5.07,5.94C2128.76,535.31,2104.32,509.91,2079.73,484.37Zm14.07,143.08c-.08-.78-.15-1.55-.22-2.32,1.63-.8,3.33-1.49,4.91-2.39,6.55-3.79,13.78-6.83,19.41-11.71,5.91-5.14,12.16-7.29,20.26-7.56.58,4.19,1.15,8.38,1.71,12.43a14.32,14.32,0,0,1-2.38,1.73c-6.46,2.68-12.93,5.36-19.44,8C2110.06,628.76,2101.92,628.11,2093.8,627.45Zm.06-156a28.3,28.3,0,0,1,1-3.44l1.6.56c-.19,1.21-.37,2.42-.56,3.62A12.87,12.87,0,0,1,2093.86,471.44ZM2105.16,352c-7.27-2.91-7.66-3-6.35-9.23,3.58-17,7.45-34,11.4-50.91.78-3.33,2.47-6.45,3.76-9.69l18.25,2.47C2131.7,298.5,2114.22,342.13,2105.16,352Zm-4.87,114a17.53,17.53,0,0,1,2.15-11.72c10-17.49,19.75-35.11,29.65-52.65.67-1.17,1.81-2.05,3.69-4.14-.63,11.61-1.29,21.64-1.67,31.69-.64,16.32-1,32.64-1.65,49-.31,8.41-.85,8.92-9.16,11-5.09-4.07-9.4-9.09-14.86-11.47C2102.63,475.15,2101.05,471.34,2100.29,466Zm2.1-243.23c-2.23-10.59.06-14.23,10-18.21,11.17-4.49,17.44-.91,18.28,11,1.35,19,2.3,37.92,3.42,56.87l1.44.37c-1.06,2-1.63,4.65-3.28,5.85-5.31,3.9-17.21-.41-18.69-6.66C2109.68,255.63,2105.84,239.25,2102.39,222.78Zm9.29,302.89,1.62-.71c7.48,7.82,14.8,15.79,22.48,23.4,3.66,3.64,4.58,7.63,4.22,12.52-.69,9.47-1.17,19-1.53,28.46-.32,8.92-1.53,10.24-12,11C2121.55,575.51,2116.62,550.58,2111.68,525.67Zm17.19-198c-1.48.61-3,1.11-6.32,2.32,5.21-14.26,9.8-26.84,14.57-39.88.63,1,1.26,1.62,1.36,2.3.8,5.11,1.6,10.21,2.18,15.35C2142.3,322.24,2142.26,322.25,2128.87,327.7Zm-3.76,166.49,6-2.71c2.31,6.09,4.45,11.71,6.59,17.34l-1.91.91C2132.35,504.7,2128.88,499.68,2125.11,494.19Zm19.79,100.26-2.67-.81c.61-11.14,1.23-22.27,1.92-34.76,2.87,2.5,4.48,4.24,6.39,5.5,4.05,2.66,5.11,6.24,3.3,10.48C2151,581.46,2147.89,587.93,2144.9,594.45Zm7.09,6c-1.85,2.13-4.28,3.11-6.87.76,14.51-26.22,14.51-26.22,12.62-37.56,1.63-2,3.35-4,5.76-6.92,3.57,4.33,6.59,8.1,9.73,11.75,1.88,2.21,2.05,4.41.23,6.58C2166.36,583.61,2159.25,592.12,2152,600.5Z"/><path d="M2195,622.38l.57,1.72c7.12,9,15.52,6.76,23.41,6.74q66.21-.23,132.4-.57c4.24,0,9.3,1.21,9.64-6,6.46.94,12.1.57,12.81-7,5.06-.57,8.68.19,9.86,4.8,1.67,6.53,5.8,7.88,12.12,7.8,45.76-.56,91.54-.76,137.3-1.08v-4.91l-88,1.79c-.18-.52-.37-1-.55-1.55a43,43,0,0,1,3.89-3.16c3.69-2.32,7.54-4.39,11.19-6.76,5.38-3.48,6-5.56,3.47-11.6a27.91,27.91,0,0,0-3-5.79c-7.41-10.11-10.64-21.9-13.7-33.76-4.34-16.86-9.16-33.63-12.82-50.64-3-13.84-9.36-24.76-21.57-32.11a38.93,38.93,0,0,1-3.59-2.62c-1.44-6.31-2.17-11.71-3.92-16.75-6.07-17.48-12.29-34.91-18.86-52.2-3.53-9.27-5.76-18.51-5.83-28.56s-2-20-2.6-30c-.3-4.76.46-9.59.74-14.21,9.79-2.05,19.08-3.94,28.32-6a41.31,41.31,0,0,0,7.74-2.56c8.15-3.59,9.68-6.93,8.93-15.89-2.06-24.67-3.56-49.39-5.92-74-.92-9.66,1.46-19.28-1.23-29-2.86-10.32-5.24-13-16.11-13.22-4.36-.09-8.72-.19-13.08-.25-9.69-.13-19.5-1.43-28.51,3.23-2.4-4-.39-6.44,1.26-8.86,5.67-8.28,9.41-17.38,9.69-27.37a144.86,144.86,0,0,0-1.4-25.15c-1.27-8.65-6.83-14.81-14.91-18.14a63.11,63.11,0,0,0-46.25-1.37c-7.65,2.68-12.47,8.56-15.57,15.86-1.06,2.47-1.81,5.08-3,8.48-5.69.51-11.59,1-17.48,1.58s-6.68,1.44-6.71,8.2l22.6-1.25c1.6,11.84,2.84,22.87,4.69,33.81a91.09,91.09,0,0,0,4.54,15.65c2.46,6.78,5.68,8.44,12.54,7,2.64-.56,5.2-1.41,7.75-2.11,3.61,6,2.28,11-1.83,15.75-1.58,1.84-2.52,4.24-4.11,6.08-9,10.3-9.9,22.48-8.89,35.34,1.76,22.25,3.18,44.53,4.76,66.79.49,6.79.59,13.65,1.78,20.32a95.89,95.89,0,0,0,5.23,17c2.07,5.41,1.37,10.49.11,15.93-5.55,23.84-11.24,47.68-15.94,71.7-2.49,12.74-3,25.86-4.51,38.8-1.65,14.05-3.4,28.1-5.17,42.14q-3.81,30.36-7.73,60.72c-1.56,11.92-3.78,14.35-15.45,16.54-5.6,1.05-11.32,1.54-17,2.09-8,.77-8.59,1.25-9,9.32-.06,1.07-.09,2.13-.17,3.84-10.21,0-20.24.15-30.25-.13-1.87,0-3.77-1.7-5.5-2.84C2199.31,622.11,2197.37,621.6,2195,622.38Zm47.6-1.84c0-.86,1.48-2.35,2.49-2.53,2.64-.5,5.44-.19,8.1-.64,10.27-1.72,21.53-.91,28.45-11,3.59,1.37,6.83,2.58,10.61,4,0,2.61.1,4.78,0,6.93-.42,7.25-.93,8.19-8,8.31-11.93.18-23.88-.22-35.82-.43-1.33,0-3,0-3.89-.77A5.84,5.84,0,0,1,2242.62,620.54Zm46.1-16c-2.83-1-5.79-2.14-5.41-6.09.1-1.08.2-2.17.34-3.25q3.95-31.16,7.91-62.29c1.64-12.85,3.34-25.69,5-38.29l22.84,4.89c.76,3.68,1.39,8.26,2.71,12.64,3.11,10.31.82,19.72-3.46,29.21-6,13.39-11.53,27-17.15,40.59-2.6,6.28-4.93,12.67-7.41,19C2293.13,603.37,2291.83,605.6,2288.72,604.54Zm4.44-431.75c-1.24-7.35-2.89-14.89-.35-23a674.06,674.06,0,0,1,71.11-3.23c1.89,11.63,1.68,22-3.15,31.42-4.55,8.91-10.52,17.17-7.47,27.82-10.05,5.15-20.18,4.23-30.4,5.32-1.33-4.26-2.57-8.21-3.87-12.4-4.17,1.35-7.43,2.65-10.81,3.45-5.92,1.4-7.35.87-9.09-4.92A203.24,203.24,0,0,1,2293.16,172.79Zm2.35,453c1-8.55.55-16.75,3-24,5.55-16.18,12.26-32,19-47.74,12-28.09,12.58-23.78,6.49-53.18a16.19,16.19,0,0,1,1.69-11.71c6.79-12.42,13.44-24.9,20.19-37.33,1-1.8,2.28-3.41,4-6,6.2,11.3,11.9,21.75,17.65,32.17,3,5.48,5.27,11.7,9.4,16.18,6.77,7.35,11.16,16,15.9,24.51,12,21.37,23.72,42.85,35.56,64.28,1.71,3.09,3.68,6.06,5.07,9.29,3.13,7.24,2.2,11.5-3.59,16.79a19.57,19.57,0,0,1-6.08,4c-5.75,2.13-9.68,5.62-10.22,12.37-5.9,0-11.34-.19-16.77.06-4.76.22-8.3-.32-9.69-6-1.16-4.81-5.75-6.3-10.19-6.91-4.19-.58-6.42,2.16-8,5.6-.33.71-1,1.28-.77,1-4.22,1.1-9,.92-10.49,3.05-2.67,3.68-5.65,3.58-9.11,3.63q-23.28.27-46.55.51C2300.41,626.38,2298.82,626.07,2295.51,625.75Zm8.12-133.88c-6.85-2.67-7.93-4.46-6.82-11.65,2-12.86,3.86-25.75,6.29-38.53,2.26-11.89,5.18-23.65,7.81-35.47a8.05,8.05,0,0,1,1.07,4.91c-.29,8.32,1.46,10.43,9.57,10.28,4.57-.07,9.13-1,14.86-1.71,2.55,4.9,5.2,10.46,8.28,15.76,2.17,3.75,1.85,6.85-.23,10.58-7.92,14.21-15.53,28.61-23.27,42.93-2.67,4.95-5.07,6.15-10.56,5A44.76,44.76,0,0,1,2303.63,491.87Zm1.4-233.2c-.77-10.05.1-19.5,6.79-27.73,2.57-3.15,4.5-6.81,6.82-10.17,4.36-6.28,5-6.46,12.58-4.7-3,5.47-7.47,10.75-8.87,16.75-4.26,18.27.07,34.52,14.75,47.1a14.94,14.94,0,0,1,5,8c1.38,4.95,1.52,9.38-.49,14.22-1.64,4-2.41,8.33-3.38,12.57-2.92,12.7-5.73,25.43-8.86,39.33-3.67,0-6.63.16-9.56,0-6.84-.45-7.95-1.57-8.49-8.25-.71-8.68-1.4-17.35-2-26C2307.86,299.36,2306.59,279,2305,258.67Zm11.3,157.44c-.86-16.65,3-31.33,14-44.09,2.64,1.24,5,2.54,7.53,3.49,2.84,1.08,3.6,3.18,3.27,5.81-1,8.06-1.52,16.25-3.31,24.14C2335.25,416.6,2328.9,419.58,2316.33,416.11Zm4.28-39.12c-1.93-6.42-3.61-12-5.72-19l12.51,1.09C2327.35,366.12,2325.81,371.61,2320.61,377Zm16.89-6.1c-5.54-2.66-6.68-3.85-5.57-9,2.63-12.2,5.42-24.35,8.23-36.5,2.06-8.94,4.26-17.85,6.64-27.74,4.27.93,7.17,1.52,10,2.18,7.11,1.61,9.5,4.47,9.27,11.75a30.36,30.36,0,0,1-1.45,8.79q-7.12,20.75-14.67,41.36a31,31,0,0,1-3.55,6.38C2344.28,371.43,2341.61,372.87,2337.5,370.89Zm-2.06-131.27c-2.24-9.32-.72-13,8.22-16.36a29.25,29.25,0,0,1,9.52-1.68c5.46-.11,6.6,1,7.73,6.29s2.06,10.67,3,16c2.16,12,4.5,24.06,3.41,36.39-.49,5.58-.3,11.47-4.76,15.74-14.71-1.52-14.67-1.52-17.7-15.12C2341.79,267.13,2338.75,253.34,2335.44,239.62Zm5.33,178.78a8.33,8.33,0,0,1-.64-6c3.75-10.69,4.59-21.76,5.18-32.92a14.09,14.09,0,0,1,2-5.86c2.5-4.49,5.23-8.85,7.92-13.22,1.12-1.81,2-4.3,3.62-5.17,4.19-2.2,8.77-3.66,14.5-5.93.87,10.63,2.37,20.33,2.28,30a77,77,0,0,0,6.69,32.45c1.1,2.49,2.15,5,3.06,7.57,5.45,15.38,10.91,30.77,16.21,46.2,1.23,3.57,2.55,7.54,0,11-3.71,5-7.44,10.12-11.91,14.41-4.27,4.1-8.56,3.19-11.31-1.9Q2359.4,453.8,2340.77,418.4ZM2359.88,349l9.95-29.49a25.25,25.25,0,0,1,1.79,7.46c.32,2.41.81,4.8,1.1,7.21C2373.91,343.85,2371.37,346.93,2359.88,349Zm27.22,151a8.8,8.8,0,0,1-.42-2.53c8.49-2.66,11.76-10.94,18-16.65,10.73,6.47,20.44,13.35,23.18,26.71,1.8,8.77,4.15,17.44,6.44,26.1,4,15.23,8.05,30.46,12.32,45.61,1.16,4.14-.6,6.35-3.89,7.7s-6.41,1.59-8.46-2.17c-.91-1.68-1.9-3.29-2.83-5Q2409.25,539.89,2387.1,500Zm31.1,124.57c1.1-2.2,1.51-4.1,2.69-5.12,1.58-1.39,3.77-2.07,5.67-3.1,10.6-5.75,13.86-11.94,12.46-23.78l11.48-4.21c3.56,6.59,7,12.9,10.83,20-7,4.27-13.65,7.5-19.34,11.89C2434.88,625.68,2427.4,626,2418.2,624.53Z"/></g><line class="cls-3" x1="2039.16" y1="630.53" x2="-519.36" y2="631.53"/><line class="cls-4" x1="4389.63" y1="625.42" x2="2526.6" y2="626.42"/></svg>