<svg xmlns="http://www.w3.org/2000/svg" viewBox="0 0 2761.53 2769.7"><defs><style>.cls-1,.cls-5{fill:#fff;}.cls-2{fill:#f7cb10;}.cls-3{fill:#fef0d0;}.cls-4{fill:#d1d1d1;}.cls-5{font-size:141.71px;}.cls-10,.cls-14,.cls-16,.cls-20,.cls-24,.cls-5{font-family:Roboto-Bold, Roboto;font-weight:700;}.cls-6{letter-spacing:-0.02em;}.cls-7{letter-spacing:-0.01em;}.cls-8{letter-spacing:-0.06em;}.cls-9{letter-spacing:-0.03em;}.cls-10{font-size:84.17px;}.cls-11{letter-spacing:-0.01em;}.cls-12{letter-spacing:0.01em;}.cls-13{letter-spacing:-0.01em;}.cls-14{font-size:107.73px;}.cls-15{letter-spacing:0.01em;}.cls-16{font-size:83.62px;}.cls-17{letter-spacing:0.01em;}.cls-18{letter-spacing:-0.01em;}.cls-19{letter-spacing:0.01em;}.cls-20{font-size:115.67px;}.cls-21{letter-spacing:-0.01em;}.cls-22{letter-spacing:0em;}.cls-23{letter-spacing:-0.01em;}.cls-24{font-size:79.88px;}.cls-25{letter-spacing:-0.01em;}.cls-26{letter-spacing:-0.01em;}.cls-27{letter-spacing:-0.01em;}.cls-28{letter-spacing:-0.01em;}</style></defs><g id="Layer_1" data-name="Layer 1"><path class="cls-1" d="M969.34,1009.23c-3.89-3.61-6.43-5.76-8.73-8.15-28.28-29.35-56.17-59.09-84.86-88-57.46-58-115.42-115.47-173-173.36-5.39-5.42-8.69-5.75-14.27-.14Q583.11,845.46,477.33,951c-2.06,2.07-3.76,4.5-6,7.16,10.6,6.8,20,13.43,29.95,19,11.24,6.34,23.24,11.36,34.5,17.67,36.29,20.34,66.33,47.76,87.08,83.84s27.71,75.67,23.81,117.07c-7.36,78-76.33,155-168.58,152.62-67.06-1.76-120.84-29.39-161.2-81.4-17.54-22.61-29.33-49.68-43.71-74.75-4.26-7.43-8.43-14.91-13.16-23.29-3.74,3.44-6.45,5.78-9,8.29-33.13,32.49-66,65.31-99.44,97.44-38.11,36.58-76.75,72.61-115.32,108.71-4.85,4.54-5,7.57-.07,12.2,18,17,35.91,34.06,53.35,51.6,42.26,42.48,84.15,85.31,126.34,127.85,31.11,31.37,62.45,62.51,93.67,93.77,2.27,2.28,4.33,4.76,7.22,8-7.19,4.54-13.11,8.8-19.47,12.22-27.72,14.9-55.76,29.23-83.32,44.43-19.66,10.85-39.55,21.6-57.9,34.45-31.76,22.25-47.56,54.77-53.38,92.33-7.29,47,7.54,85.6,46.3,113.73q37.08,26.89,83.45,22.92c23.1-2,44-9.79,63-22.15,26.48-17.26,45.56-41.87,60.45-69.28,19.72-36.3,38.1-73.34,57-110.12,6.37-12.4,10.78-13.42,21.92-4.44a60.37,60.37,0,0,1,5.49,5.25c13.64,14.17,27.09,28.54,40.93,42.53,25.73,26,51.79,51.67,77.53,77.67,38.59,39,77,78.16,115.56,117.14,11.19,11.31,22.2,11.45,33.27.84,29-27.82,58.31-55.36,86.83-83.68,19.34-19.19,37.34-39.72,56.32-59.28q45.54-46.93,91.63-93.31c6.61-6.66,14.12-12.43,22.43-19.66,12.41,24.5,23.67,48,36.09,70.91,13.77,25.39,27.18,51.17,43.25,75.09,34.23,51,105.86,70.18,160.77,49.05,17.34-6.67,33.07-15.36,44.36-30.74,39.88-54.38,32.82-113.6-2.14-165-15.52-22.79-38.13-38-62.3-50.61-33.69-17.53-67.67-34.49-101.52-51.72-8-4.07-8.35-5.32-2.56-12.28,5-6,10.17-12,15.72-17.59q122-122.16,244.09-244.2c8.54-8.54,8.46-11.44,0-20.22-11.48-12-22.69-24.21-34.37-36-32.72-33-65.69-65.64-98.41-98.58-14.06-14.16-27.41-29-41.67-43-27.92-27.34-56.23-54.27-84.44-81.31-3.83-3.67-4.84-6.89.44-10,9.67-5.63,19.23-11.47,29.08-16.78,22.5-12.13,45-24.26,67.76-35.9,25.57-13.08,50.57-26.56,71.28-47.25,35-35,50.93-95.16,29.36-144.2-19.89-45.2-61.08-73.57-110-72.08-22.52.68-43.82,6.78-63.88,16.92-28.06,14.18-50.28,34-64.62,62.83-17.39,35-36.5,69.13-55,103.57C981,989,975.49,998.36,969.34,1009.23Zm38.36-590.31c-7.34,6.69-13.85,12.32-20,18.29-36.79,35.58-73.77,71-110.2,106.92-44.67,44.07-88.87,88.61-133.26,133-8.05,8-8.13,9.79-.27,17.85q40.37,41.37,80.87,82.61c16.78,17,33.89,33.76,50.67,50.8C901.72,855,927.79,881.84,954,908.54c6.54,6.66,7.53,6.55,12.18-1.51,7.31-12.67,14.46-25.42,21.55-38.21,13-23.44,27.47-45.88,46-65.39,38.46-40.52,86-58.66,141.59-58,54,.59,96.62,24.23,129.75,64.93,29.13,35.78,37.41,78.48,33.83,123.79-4.44,56.19-30.53,101.32-75,134.12-27,19.85-57.85,34.39-87.18,51-9.36,5.29-10.23,6.76-3.21,13.78q105,105.09,210,210.17c5.59,5.61,9.76,5.8,15.46.08q107.58-107.89,215.4-215.56c6.5-6.51,5.81-8.71-2.55-12.58-15.81-7.32-32-14.08-47.17-22.5-33.36-18.46-64.84-39.62-89.11-69.77-35.74-44.42-50.31-95-41.92-151.44,6.09-40.94,26.18-74.62,58.42-100.42,30.25-24.22,64.92-37.7,104-39,36.5-1.21,70.13,8.73,101.48,26.7,28,16.05,51.8,37,68.42,64.93,17.1,28.77,33.25,58.1,49.82,87.17,5.72,10.05,9.81,10.6,18.09,2.53q27.8-27.07,55.61-54.15,78.76-76.95,157.48-154c9.83-9.62,9.74-9.67-.22-19.69Q1926,563.94,1805.28,442.32c-8.4-8.47-15.88-17.85-24.18-27.26,2.84-2.06,4.26-3.39,5.92-4.26q32.45-17.16,65-34.21c21.66-11.39,44.11-21.5,64.81-34.43,52-32.5,83.71-77.14,77.19-141.64-3.57-35.32-20.37-63.88-48.34-85.78-24.16-18.92-51.78-24.46-81.79-21.46-42.14,4.21-77.64,21.66-103.21,55.41-14,18.47-24.73,39.52-36,59.91-17.33,31.22-33.85,62.88-50.81,94.31-1.5,2.77-3.75,5.14-6,8.11-2.74-2.44-4.67-4-6.46-5.77q-31.44-30.58-62.84-61.23-54.23-53.19-108.31-106.51c-33.69-33.14-67.47-66.19-101-99.52-5.39-5.35-9.18-5.88-14.51-.09-12.38,13.44-25,26.71-37.91,39.6-38.49,38.29-77.26,76.3-115.8,114.54q-51.84,51.42-103.44,103.09c-2.13,2.12-4.35,4.16-6.61,6.31-1.2-1.14-2-1.59-2.33-2.27q-26.57-52.74-53.06-105.51c-11.36-22.52-25.6-43-44.31-60.07-25.18-23-55.15-35.81-88.77-39.29-38.33-4-73.16,7-99,35.17-37.77,41.11-42.52,90.14-22.39,140.88,17.26,43.54,51.87,70.09,93.92,88.4,20.82,9.06,41.1,19.43,61.16,30.1C973.2,397.93,989.58,408.28,1007.7,418.92ZM1776.23,1809.5c4.43-2.39,7.33-4,10.26-5.53,39-20.67,78.42-40.66,117-62.15,50.77-28.28,75.82-73.17,78.4-130.42,1.68-37.29-14.41-66.46-44.34-89-21.88-16.45-45.64-27.85-72.94-26.92-31.26,1.07-60.07,12.59-85.66,30.2-26.68,18.37-42.8,45.53-57,74.07-16,32.21-32.88,64-49.53,95.85-3.88,7.43-6.59,7.74-12.36,1.4-5.46-6-9.93-12.92-15.64-18.64-13.3-13.33-27.26-26-40.64-39.25q-41.07-40.71-81.81-81.75-61.07-61.28-122-122.75c-3.34-3.38-5.45-2.79-8.38,0-7.36,6.93-15,13.61-22.24,20.64q-32.43,31.38-64.66,63-65.87,64.82-131.53,129.82c-2.11,2.09-3.93,4.46-5.84,6.64,1.09,1.44,1.46,2.31,2.11,2.7a36.42,36.42,0,0,0,5.24,2.68c36.55,14.53,68.71,36.2,97.06,63,29.32,27.7,48.45,61.85,56.15,101.79,10.45,54.22,1.74,104.29-34.71,147.3-40,47.17-90.88,69.81-153,63.2-66.16-7-116.5-40-151.65-96.27-12.37-19.79-24.08-40-36.37-59.83-5.4-8.71-6.68-8.76-13.69-1.5-26.75,27.71-53.24,55.67-80.08,83.28-30.78,31.66-61.82,63.07-92.78,94.56C758,2063.41,750,2071,742.47,2079c-6.55,7-5.56,12.11,1.15,18.78,14.91,14.84,29.23,30.27,44,45.22q24,24.26,48.55,48.05c14.11,13.71,28.82,26.8,42.73,40.7,22.84,22.83,45.18,46.15,67.9,69.09,3.84,3.88,8.56,6.89,13.09,10.46a23.06,23.06,0,0,0,2.64-3.17c9.22-17.69,18.27-35.47,27.62-53.1,15.55-29.28,34-56.66,59.75-77.84,42.15-34.65,90.81-49.24,145.32-44,42.93,4.14,79.31,21.15,108.42,53.47,28.44,31.58,41.29,69.34,43.36,110.85,1.85,37.11-7.91,71.9-26,104.29-18.2,32.59-42.44,59.69-75.44,77.57-23.7,12.84-48.41,23.83-72.82,35.32-4.67,2.2-6.55,4.95-3.46,8.92a181.18,181.18,0,0,0,15,16.59c40.74,40.85,81.65,81.52,122.31,122.44,22.59,22.74,44.67,46,67.25,68.75,12.91,13,22.35,12.91,34.5.13,16.84-17.72,33.19-35.92,50.27-53.39,41.7-42.64,83.36-85.31,125.71-127.29,24.33-24.12,50-46.91,75.07-70.27a27.94,27.94,0,0,1,3.76-2.54c4.26,7.86,8.06,15.34,12.31,22.56,5.24,8.91,11.34,17.34,16.2,26.44,11.11,20.83,21.08,42.28,32.61,62.87,16.05,28.64,34.5,55.63,63.56,72.92,59,35.09,121.86,28.5,168.57-31.05,18.57-23.68,23.23-51.66,20.41-80.71-3.59-37-18.77-68.8-48.14-92.5-42.23-34.08-92.18-54.94-140-79.16-13.91-7.05-15.8-18.67-4.8-28.64q30-27.15,58.93-55.47,66.33-64.93,132.11-130.43c23.47-23.38,46.18-47.54,69.64-70.93,5.5-5.49,5.59-8.59,0-14.07q-76.18-74.78-151.86-150.07c-36.42-36.37-72.31-73.28-108.36-110C1781.7,1817,1779.57,1813.73,1776.23,1809.5Z"/><path class="cls-2" d="M2740.23,1395.42c-36.12,35.9-72.4,71.64-108.33,107.73-41.68,41.86-83,84.09-124.61,126-10.49,10.57-21.59,20.52-32.32,30.85a50.55,50.55,0,0,0-6.62,7.63c-7.86,11.39-5.28,16.45,7.54,22,14.4,6.22,28.09,14.13,41.87,21.72,29.29,16.14,59.77,30.59,87.32,49.34,37.94,25.82,57.85,63.29,59.38,109.93,1.18,35.92-9.83,67.24-35.38,92.5a108.55,108.55,0,0,1-68.55,31.46c-53.36,4.27-96.37-16.26-129.15-58.49-17.88-23-30.87-48.89-43.59-74.94-11-22.51-22.31-44.85-33.53-67.24a30.13,30.13,0,0,0-2.69-3.72c-1.63,1-3.21,1.54-4.32,2.61-35.05,33.3-70.57,66.12-104.9,100.15-32.15,31.86-63,65-94.46,97.56-14.64,15.18-29.15,30.48-44,45.49-13,13.17-23.73,12.59-36.78-.78q-76.61-78.49-153.52-156.7c-14.6-14.79-30.09-28.71-45.41-42.77-4.55-4.16-3.87-7,.9-9.73,18.48-10.73,36.57-22.2,55.54-32,61-31.38,99-79.9,108.81-148.1,7.26-50.21-3.49-97.73-35.26-137.54-36.79-46.1-86.46-69.54-145.85-64.94-63,4.89-114.26,33.72-151.11,85.88-9.37,13.28-17.28,27.62-25.43,41.72-9.08,15.71-17.67,31.71-27.15,48.79-2.59-3.2-4.09-5.09-5.62-7-10.66-13-20.48-26.79-32.16-38.78-32.78-33.67-66.13-66.79-99.65-99.73-23.25-22.85-47.26-44.93-70.72-67.57-12.13-11.7-12-17.72,0-29.55,26.87-26.43,54-52.61,80.8-79.09q82.88-81.84,165.45-164c7-7,13-15.15,20.17-23.61-10.74-6.33-22.55-12.17-33.15-19.74-33.76-24.1-72.67-38-109.37-56.21-57.47-28.55-84.79-76.31-83.27-139.05,1.35-55.41,35-96.83,95.23-109.69,38.17-8.14,71.68,1.91,102.69,23.67,34.11,23.93,56.06,57.26,71.59,95,14.17,34.49,31.8,67,51.38,98.65,3.73,6,6.46,4.44,10.31.57q28.85-29.05,57.85-58l204.74-204.75c8.55-8.55,8.66-8.63,17,0,32.27,33.34,64.34,66.86,96.73,100.07,34.18,35,68.64,69.78,103,104.68,2.31,2.33,4.48,4.8,7.55,8.11-11.8,6.55-22.51,12.61-33.33,18.46-16.58,8.95-34,16.55-49.72,26.83-61,39.9-95.5,95.61-97.1,169.59-1.06,48.64,16.82,90.32,50.36,124.88,27.21,28,61.13,43.54,100.06,47.56,59.84,6.18,111-13.51,155.94-52.24,27.62-23.83,46.45-53.78,62-86.27,6.85-14.31,15-28,22.94-42.81,14.17,12.3,28.23,23.87,41.57,36.22,22.69,21,45.62,41.82,67.2,63.93,40.84,41.83,80.8,84.51,121.13,126.84Z"/><path class="cls-3" d="M969.34,1009.23c6.15-10.87,11.7-20.23,16.84-29.81,18.47-34.44,37.58-68.58,55-103.57,14.34-28.88,36.56-48.65,64.62-62.83,20.06-10.14,41.36-16.24,63.88-16.92,48.89-1.49,90.08,26.88,110,72.08,21.57,49,5.65,109.22-29.36,144.2-20.71,20.69-45.71,34.17-71.28,47.25-22.75,11.64-45.26,23.77-67.76,35.9-9.85,5.31-19.41,11.15-29.08,16.78-5.28,3.07-4.27,6.29-.44,10,28.21,27,56.52,54,84.44,81.31,14.26,14,27.61,28.82,41.67,43,32.72,32.94,65.69,65.63,98.41,98.58,11.68,11.76,22.89,24,34.37,36,8.42,8.78,8.5,11.68,0,20.22q-122.05,122.09-244.09,244.2c-5.55,5.56-10.69,11.55-15.72,17.59-5.79,7-5.43,8.21,2.56,12.28,33.85,17.23,67.83,34.19,101.52,51.72,24.17,12.57,46.78,27.82,62.3,50.61,35,51.35,42,110.57,2.14,165-11.29,15.38-27,24.07-44.36,30.74-54.91,21.13-126.54,1.94-160.77-49.05-16.07-23.92-29.48-49.7-43.25-75.09-12.42-22.89-23.68-46.41-36.09-70.91-8.31,7.23-15.82,13-22.43,19.66q-46.05,46.42-91.63,93.31c-19,19.56-37,40.09-56.32,59.28-28.52,28.32-57.81,55.86-86.83,83.68-11.07,10.61-22.08,10.47-33.27-.84-38.59-39-77-78.17-115.56-117.14-25.74-26-51.8-51.67-77.53-77.67-13.84-14-27.29-28.36-40.93-42.53a60.37,60.37,0,0,0-5.49-5.25c-11.14-9-15.55-8-21.92,4.44-18.86,36.78-37.24,73.82-57,110.12-14.89,27.41-34,52-60.45,69.28-19,12.36-39.88,20.19-63,22.15q-46.28,3.9-83.45-22.92c-38.76-28.13-53.59-66.73-46.3-113.73,5.82-37.56,21.62-70.08,53.38-92.33,18.35-12.85,38.24-23.6,57.9-34.45,27.56-15.2,55.6-29.53,83.32-44.43,6.36-3.42,12.28-7.68,19.47-12.22-2.89-3.2-4.95-5.68-7.22-8-31.22-31.26-62.56-62.4-93.67-93.77-42.19-42.54-84.08-85.37-126.34-127.85-17.44-17.54-35.36-34.62-53.35-51.6-4.89-4.63-4.78-7.66.07-12.2,38.57-36.1,77.21-72.13,115.32-108.71,33.48-32.13,66.31-65,99.44-97.44,2.55-2.51,5.26-4.85,9-8.29,4.73,8.38,8.9,15.86,13.16,23.29,14.38,25.07,26.17,52.14,43.71,74.75,40.36,52,94.14,79.64,161.2,81.4,92.25,2.42,161.22-74.62,168.58-152.62,3.9-41.4-3.08-81-23.81-117.07s-50.79-63.5-87.08-83.84c-11.26-6.31-23.26-11.33-34.5-17.67-10-5.61-19.35-12.24-29.95-19,2.2-2.66,3.9-5.09,6-7.16Q582.95,845.3,688.51,739.54c5.58-5.61,8.88-5.28,14.27.14,57.55,57.89,115.51,115.38,173,173.36,28.69,29,56.58,58.69,84.86,88C962.91,1003.47,965.45,1005.62,969.34,1009.23Z"/><path d="M1007.7,418.92c-18.12-10.64-34.5-21-51.56-30.07-20.06-10.67-40.34-21-61.16-30.1-42.05-18.31-76.66-44.86-93.92-88.4-20.13-50.74-15.38-99.77,22.39-140.88,25.89-28.18,60.72-39.14,99-35.17,33.62,3.48,63.59,16.33,88.77,39.29,18.71,17.07,33,37.55,44.31,60.07q26.61,52.71,53.06,105.51c.34.68,1.13,1.13,2.33,2.27,2.26-2.15,4.48-4.19,6.61-6.31Q1169.3,243.58,1221,192c38.54-38.24,77.31-76.25,115.8-114.54,13-12.89,25.53-26.16,37.91-39.6,5.33-5.79,9.12-5.26,14.51.09,33.5,33.33,67.28,66.38,101,99.52q54.15,53.25,108.31,106.51,31.31,30.72,62.84,61.23c1.79,1.74,3.72,3.33,6.46,5.77,2.21-3,4.46-5.34,6-8.11,17-31.43,33.48-63.09,50.81-94.31,11.31-20.39,22-41.44,36-59.91,25.57-33.75,61.07-51.2,103.21-55.41,30-3,57.63,2.54,81.79,21.46,28,21.9,44.77,50.46,48.34,85.78,6.52,64.5-25.19,109.14-77.19,141.64-20.7,12.93-43.15,23-64.81,34.43s-43.32,22.77-65,34.21c-1.66.87-3.08,2.2-5.92,4.26,8.3,9.41,15.78,18.79,24.18,27.26Q1925.85,564,2046.7,685.5c10,10,10,10.07.22,19.69q-78.7,77-157.48,154-27.76,27.12-55.61,54.15c-8.28,8.07-12.37,7.52-18.09-2.53-16.57-29.07-32.72-58.4-49.82-87.17-16.62-28-40.43-48.88-68.42-64.93-31.35-18-65-27.91-101.48-26.7-39.08,1.29-73.75,14.77-104,39-32.24,25.8-52.33,59.48-58.42,100.42-8.39,56.44,6.18,107,41.92,151.44,24.27,30.15,55.75,51.31,89.11,69.77,15.21,8.42,31.36,15.18,47.17,22.5,8.36,3.87,9,6.07,2.55,12.58q-107.7,107.79-215.4,215.56c-5.7,5.72-9.87,5.53-15.46-.08q-104.91-105.2-210-210.17c-7-7-6.15-8.49,3.21-13.78,29.33-16.58,60.22-31.12,87.18-51,44.51-32.8,70.6-77.93,75-134.12,3.58-45.31-4.7-88-33.83-123.79-33.13-40.7-75.71-64.34-129.75-64.93-55.6-.62-103.13,17.52-141.59,58-18.51,19.51-33,42-46,65.39-7.09,12.79-14.24,25.54-21.55,38.21-4.65,8.06-5.64,8.17-12.18,1.51-26.21-26.7-52.28-53.53-78.52-80.19-16.78-17-33.89-33.76-50.67-50.8q-40.56-41.19-80.87-82.61c-7.86-8.06-7.78-9.81.27-17.85,44.39-44.35,88.59-88.89,133.26-133,36.43-35.94,73.41-71.34,110.2-106.92C993.85,431.24,1000.36,425.61,1007.7,418.92Z"/><path class="cls-4" d="M1776.23,1809.5c3.34,4.23,5.47,7.52,8.16,10.25,36,36.74,71.94,73.65,108.36,110q75.54,75.42,151.86,150.07c5.58,5.48,5.49,8.58,0,14.07-23.46,23.39-46.17,47.55-69.64,70.93q-65.76,65.52-132.11,130.43-28.92,28.3-58.93,55.47c-11,10-9.11,21.59,4.8,28.64,47.83,24.22,97.78,45.08,140,79.16,29.37,23.7,44.55,55.47,48.14,92.5,2.82,29.05-1.84,57-20.41,80.71-46.71,59.55-109.57,66.14-168.57,31.05-29.06-17.29-47.51-44.28-63.56-72.92-11.53-20.59-21.5-42-32.61-62.87-4.86-9.1-11-17.53-16.2-26.44-4.25-7.22-8-14.7-12.31-22.56a27.94,27.94,0,0,0-3.76,2.54c-25.09,23.36-50.74,46.15-75.07,70.27-42.35,42-84,84.65-125.71,127.29-17.08,17.47-33.43,35.67-50.27,53.39-12.15,12.78-21.59,12.88-34.5-.13-22.58-22.76-44.66-46-67.25-68.75-40.66-40.92-81.57-81.59-122.31-122.44a181.18,181.18,0,0,1-15-16.59c-3.09-4-1.21-6.72,3.46-8.92,24.41-11.49,49.12-22.48,72.82-35.32,33-17.88,57.24-45,75.44-77.57,18.09-32.39,27.85-67.18,26-104.29-2.07-41.51-14.92-79.27-43.36-110.85-29.11-32.32-65.49-49.33-108.42-53.47-54.51-5.25-103.17,9.34-145.32,44-25.78,21.18-44.2,48.56-59.75,77.84-9.35,17.63-18.4,35.41-27.62,53.1a23.06,23.06,0,0,1-2.64,3.17c-4.53-3.57-9.25-6.58-13.09-10.46-22.72-22.94-45.06-46.26-67.9-69.09-13.91-13.9-28.62-27-42.73-40.7q-24.5-23.79-48.55-48.05c-14.81-14.95-29.13-30.38-44-45.22-6.71-6.67-7.7-11.8-1.15-18.78,7.5-8,15.48-15.56,23.17-23.38,31-31.49,62-62.9,92.78-94.56,26.84-27.61,53.33-55.57,80.08-83.28,7-7.26,8.29-7.21,13.69,1.5,12.29,19.84,24,40,36.37,59.83,35.15,56.25,85.49,89.23,151.65,96.27,62.13,6.61,113-16,153-63.2,36.45-43,45.16-93.08,34.71-147.3-7.7-39.94-26.83-74.09-56.15-101.79-28.35-26.79-60.51-48.46-97.06-63a36.42,36.42,0,0,1-5.24-2.68c-.65-.39-1-1.26-2.11-2.7,1.91-2.18,3.73-4.55,5.84-6.64q65.73-65,131.53-129.82,32.16-31.65,64.66-63c7.27-7,14.88-13.71,22.24-20.64,2.93-2.75,5-3.34,8.38,0q60.82,61.53,122,122.75,40.82,41,81.81,81.75c13.38,13.25,27.34,25.92,40.64,39.25,5.71,5.72,10.18,12.65,15.64,18.64,5.77,6.34,8.48,6,12.36-1.4,16.65-31.88,33.54-63.64,49.53-95.85,14.18-28.54,30.3-55.7,57-74.07,25.59-17.61,54.4-29.13,85.66-30.2,27.3-.93,51.06,10.47,72.94,26.92,29.93,22.49,46,51.66,44.34,89-2.58,57.25-27.63,102.14-78.4,130.42-38.57,21.49-78,41.48-117,62.15C1783.56,1805.52,1780.66,1807.11,1776.23,1809.5Z"/><text class="cls-5" transform="translate(898.18 733.45) rotate(-45)"><tspan class="cls-6">K</tspan><tspan x="87.81" y="0">O</tspan><tspan class="cls-7" x="185.65" y="0">N</tspan><tspan class="cls-8" x="283.69" y="0">T</tspan><tspan x="363.06" y="0">AK</tspan><tspan class="cls-9" x="548.36" y="0">T</tspan></text><text class="cls-10" transform="translate(644.75 851.47) rotate(45)">ODPOWIE<tspan class="cls-11" x="370.71" y="0">D</tspan><tspan x="424.47" y="0">Z</tspan><tspan class="cls-12" x="475.47" y="0">I</tspan><tspan x="500.74" y="0">ALNOŚĆ</tspan></text><text class="cls-10" transform="matrix(0.71, 0.71, -0.71, 0.71, 1348.77, 1523.08)">WSZECHSTRON<tspan class="cls-13" x="613.31" y="0">N</tspan><tspan x="671.59" y="0">Y</tspan><tspan x="191.5" y="101">R</tspan><tspan class="cls-11" x="245.21" y="101">O</tspan><tspan x="302.38" y="101">ZWÓJ</tspan></text><text class="cls-14" transform="translate(696.35 1981.45) rotate(-45)">ŚW<tspan class="cls-15" x="160.44" y="0">I</tspan><tspan x="192.8" y="0">ADOMOŚĆ</tspan></text><text class="cls-16" transform="translate(1540.46 1414.15) rotate(-45)">PO<tspan class="cls-17" x="111.67" y="0">N</tspan><tspan x="171.45" y="0">AD PO</tspan><tspan class="cls-18" x="414.55" y="0">D</tspan><tspan x="467.96" y="0">Z</tspan><tspan class="cls-19" x="518.63" y="0">I</tspan><tspan x="543.74" y="0">AŁAMI</tspan></text><text class="cls-20" transform="translate(2169.55 1906.39) rotate(-45)">EDUK<tspan class="cls-21" x="289.8" y="0">A</tspan><tspan class="cls-22" x="366.45" y="0">C</tspan><tspan class="cls-23" x="442.13" y="0">J</tspan><tspan x="505.5" y="0">A</tspan></text><text class="cls-24" transform="translate(1381.86 2703.72) rotate(-45)">FIZ<tspan class="cls-25" x="115.45" y="0">Y</tspan><tspan x="163.69" y="0">CZ</tspan><tspan class="cls-26" x="264.36" y="0">N</tspan><tspan x="319.66" y="0">Y I SPOŁECZ</tspan><tspan class="cls-27" x="778.02" y="0">N</tspan><tspan x="833.32" y="0">Y</tspan></text><text class="cls-5" transform="translate(1321.66 172.74) rotate(45)">Z PRZYRO<tspan class="cls-28" x="664.74" y="0">D</tspan><tspan x="755.39" y="0">Ą</tspan></text></g></svg>