<svg id="visual" xmlns="http://www.w3.org/2000/svg" viewBox="0 0 900 600"><defs><style>.cls-1{fill:#e1e4e8;}.cls-2{fill:#dbdee3;}.cls-3{fill:#d5d9de;}.cls-4{fill:#cfd3da;}.cls-5{fill:#c8ced5;}.cls-6{fill:#c2c9d0;}</style></defs><path class="cls-1" d="M0,440l21.5-7.7c21.5-7.6,64.5-23,107.3-36.5s85.5-25.1,128.4-30S343,363,385.8,376.2s85.5,37.5,128.4,44S600,415.3,642.8,407s85.5-13.7,128.4-8,85.8,22.3,107.3,30.7L900,438V601H0Z"/><path class="cls-2" d="M0,421l21.5,6.8C43,434.7,86,448.3,128.8,455.3s85.5,7.4,128.4,3S343,445,385.8,437.5s85.5-13.5,128.4-18.8,85.8-10,128.6-4.4S728.3,436,771.2,441s85.8-1,107.3-4l21.5-3V601H0Z"/><path class="cls-3" d="M0,437l21.5,7.8C43,452.7,86,468.3,128.8,468.5s85.5-15.2,128.4-25,85.8-14.2,128.6-15.8,85.5-.7,128.4,8.1,85.8,25.5,128.6,27.5,85.5-10.6,128.4-10.3,85.8,13.7,107.3,20.3L900,480V601H0Z"/><path class="cls-4" d="M0,481l21.5-3.5C43,474,86,467,128.8,470.3s85.5,17,128.4,20.5,85.8-3.1,128.6-1.1,85.5,12.6,128.4,14.3,85.8-5.7,128.6-12.8,85.5-14.2,128.4-10,85.8,19.5,107.3,27.1L900,516v85H0Z"/><path class="cls-5" d="M0,543l21.5-.8c21.5-.9,64.5-2.5,107.3-9.4s85.5-18.8,128.4-23.3,85.8-1.5,128.6-1.2,85.5-2,128.4-1.1,85.8,4.8,128.6,5,85.5-3.5,128.4-6.4S857,501,878.5,500l21.5-1V601H0Z"/><path class="cls-6" d="M0,561l21.5-1.8c21.5-1.9,64.5-5.5,107.3-3s85.5,11.1,128.4,9.8,85.8-12.7,128.6-15,85.5,4.3,128.4,7.7,85.8,3.3,128.6,5,85.5,5,128.4,5.6S857,568,878.5,567l21.5-1v35H0Z"/></svg>